<svg width="18" height="14" viewBox="0 0 18 14" version="1.1" xmlns="http://www.w3.org/2000/svg" xmlns:xlink="http://www.w3.org/1999/xlink">
<g id="Canvas" fill="none">
<g id="Vector">
<path d="M 28.9667 5.07814C 28.6 2.72043 27.5 1.08817 24.9333 0.725448C 20.9 1.6215e-07 14.6667 0 14.6667 0C 14.6667 0 8.43333 1.6215e-07 4.4 0.725448C 1.83333 1.08817 0.55 2.72043 0.366667 5.07814C 0 7.43584 0 10.8817 0 10.8817C 0 10.8817 0 14.3276 0.366667 16.6853C 0.733333 19.043 1.83333 20.6753 4.4 21.038C 8.43333 21.7634 14.6667 21.7634 14.6667 21.7634C 14.6667 21.7634 20.9 21.7634 24.9333 21.038C 27.5 20.4939 28.6 19.043 28.9667 16.6853C 29.3333 14.3276 29.3333 10.8817 29.3333 10.8817C 29.3333 10.8817 29.3333 7.43584 28.9667 5.07814ZM 11 16.3226L 11 5.44086L 20.1667 10.8817L 11 16.3226Z" transform="scale(0.6)" fill="white"/>
</g>
</g>
</svg>

