<svg width="18" height="10" viewBox="0 0 18 10" version="1.1" xmlns="http://www.w3.org/2000/svg" xmlns:xlink="http://www.w3.org/1999/xlink">
<title>Subtract</title>
<desc>Created using Figma</desc>
<g id="Canvas" transform="translate(9405 7692)">
<g id="Subtract">
<use xlink:href="#path0_fill" transform="matrix(0.6 0 0 0.6 -9404.8 -7692)" fill="#FFFFFF"/>
</g>
</g>
<defs>
<path id="path0_fill" fill-rule="evenodd" d="M 23.7435 16.0286L 27.3421 16.0286C 27.7083 16.0286 28.0534 15.8594 28.0518 15.2653C 28.0518 14.4775 26.9987 13.068 25.3825 11.3965C 24.9853 10.8805 24.4368 10.3369 23.9893 9.89258C 23.6914 9.59798 23.4391 9.34733 23.3024 9.17643C 22.8141 8.6735 22.9606 8.38542 23.3024 7.86133C 23.3024 7.86133 27.0003 2.77506 27.3665 1.10352C 27.4902 0.506185 27.2201 0.172526 26.5837 0.172526L 23.3773 0.172526C 22.6432 0.172526 22.373 0.481771 22.1533 0.935872C 22.1533 0.935872 20.4183 4.53776 18.3089 6.8099C 17.6318 7.54394 17.2868 7.7653 16.9124 7.7653C 16.6113 7.7653 16.4714 7.51953 16.4714 6.8571L 16.4714 1.05306C 16.4714 0.242513 16.3737 0.0016276 15.6885 0.0016276L 10.5469 0.0016276C 10.1562 0.0016276 9.91048 0.224609 9.91048 0.525716C 9.91048 0.81543 10.0814 1.01888 10.2962 1.27441C 10.6462 1.69271 11.1117 2.24772 11.1117 3.53678L 11.1117 7.80924C 11.1117 8.67025 11.0628 9.00391 10.6462 9.00391C 9.54427 9.00391 6.92383 5.29948 5.45736 1.09701C 5.16276 0.239258 4.84375 0 4.01367 0L 0.807292 0C 0.341797 0 0 0.309245 0 0.763346C 0 1.60156 1.00586 5.47038 4.94629 10.6527C 7.58952 14.1406 11.0661 16.027 14.1992 16.027C 16.1084 16.027 16.5739 15.7161 16.5739 14.9284L 16.5739 12.2542C 16.5739 11.5869 16.8408 11.3005 17.2347 11.3005C 17.6725 11.3005 18.4505 11.4388 20.2686 13.1852C 21.0091 13.8753 21.5137 14.4287 21.9027 14.8551C 22.6465 15.6689 22.9736 16.0286 23.7435 16.0286Z"/>
</defs>
</svg>
