<svg width="17" height="10" viewBox="0 0 17 10" version="1.1" xmlns="http://www.w3.org/2000/svg" xmlns:xlink="http://www.w3.org/1999/xlink">
<g id="Canvas" fill="none">
<g id="Subtract">
<path fill-rule="evenodd" clip-rule="evenodd" d="M 23.7435 16.0295L 27.3421 16.0295C 27.7083 16.0295 28.0534 15.8602 28.0518 15.2653C 28.0518 14.4775 26.9987 13.0688 25.3825 11.3973C 24.9854 10.8813 24.4385 10.3385 23.9909 9.89502C 23.693 9.60042 23.4391 9.34896 23.3024 9.17725C 22.8141 8.6735 22.9606 8.38704 23.3024 7.86214C 23.3024 7.86214 24.6029 6.07422 25.7373 4.26921C 26.5153 3.0306 27.2168 1.78467 27.3665 1.10352C 27.4902 0.506185 27.2201 0.172526 26.5837 0.172526L 23.3773 0.172526C 22.6432 0.172526 22.373 0.482585 22.1533 0.936686C 22.1533 0.936686 20.4183 4.53939 18.3089 6.81152C 17.6318 7.54395 17.2868 7.76611 16.9124 7.76611C 16.6113 7.76611 16.4714 7.52116 16.4714 6.85791L 16.4714 1.05387C 16.4714 0.243327 16.3737 0.00325521 15.6885 0.00325521L 10.5469 0.00325521C 10.1562 0.00325521 9.91048 0.224609 9.91048 0.527344C 9.91048 1.2915 11.1117 1.46647 11.1117 3.5376L 11.1117 7.81006C 11.1117 8.22672 11.1003 8.51969 11.0417 8.71175C 10.9782 8.91602 10.861 9.00472 10.6462 9.00472C 9.54427 9.00472 6.92383 5.30111 5.45736 1.09863C 5.16276 0.240072 4.84375 0 4.01367 0L 0.807292 0C 0.341797 0 0 0.310872 0 0.764974C 0 1.60238 1.00586 5.47038 4.94629 10.6535C 7.58952 14.1414 11.0661 16.027 14.1992 16.027C 16.1084 16.027 16.5739 15.717 16.5739 14.9292L 16.5739 12.255C 16.5739 11.5877 16.8408 11.3005 17.2347 11.3005C 17.6725 11.3005 18.4505 11.4388 20.2686 13.1868C 21.0091 13.877 21.512 14.4287 21.9027 14.8551C 22.6465 15.6698 22.9736 16.0295 23.7435 16.0295Z" transform="translate(0 0.333008) scale(0.6)" fill="white"/>
</g>
</g>
</svg>

