<svg width="18" height="18" viewBox="0 0 18 18" version="1.1" xmlns="http://www.w3.org/2000/svg" xmlns:xlink="http://www.w3.org/1999/xlink">
<title>Group</title>
<desc>Created using Figma</desc>
<g id="Canvas" transform="translate(9405 7580)">
<g id="Group">
<g id="Vector">
<use xlink:href="#path0_fill" transform="matrix(0.6 0 0 0.6 -9392.5 -7576.57)" fill="#FFFFFF"/>
</g>
<g id="Vector">
<use xlink:href="#path1_fill" transform="matrix(0.6 0 0 0.6 -9400.4 -7575.4)" fill="#FFFFFF"/>
</g>
<g id="Vector">
<use xlink:href="#path2_fill" transform="matrix(0.6 0 0 0.6 -9404.8 -7579.8)" fill="#FFFFFF"/>
</g>
</g>
</g>
<defs>
<path id="path0_fill" d="M 1.76 3.52C 2.73202 3.52 3.52 2.73202 3.52 1.76C 3.52 0.787979 2.73202 0 1.76 0C 0.78798 0 0 0.787979 0 1.76C 0 2.73202 0.78798 3.52 1.76 3.52Z"/>
<path id="path1_fill" d="M 7.33333 14.6667C 3.289 14.6667 0 11.3777 0 7.33333C 0 3.289 3.289 0 7.33333 0C 11.3777 0 14.6667 3.289 14.6667 7.33333C 14.6667 11.3777 11.3777 14.6667 7.33333 14.6667ZM 7.33333 3.66667C 5.31117 3.66667 3.66667 5.31117 3.66667 7.33333C 3.66667 9.3555 5.31117 11 7.33333 11C 9.3555 11 11 9.3555 11 7.33333C 11 5.31117 9.3555 3.66667 7.33333 3.66667Z"/>
<path id="path2_fill" d="M 22 29.3333L 7.33333 29.3333C 3.564 29.3333 0 25.7693 0 22L 0 7.33333C 0 3.564 3.564 0 7.33333 0L 22 0C 25.7693 0 29.3333 3.564 29.3333 7.33333L 29.3333 22C 29.3333 25.7693 25.7693 29.3333 22 29.3333ZM 7.33333 3.66667C 5.61917 3.66667 3.66667 5.61917 3.66667 7.33333L 3.66667 22C 3.66667 23.7472 5.58617 25.6667 7.33333 25.6667L 22 25.6667C 23.7142 25.6667 25.6667 23.7142 25.6667 22L 25.6667 7.33333C 25.6667 5.61917 23.7142 3.66667 22 3.66667L 7.33333 3.66667Z"/>
</defs>
</svg>
