<svg xmlns="http://www.w3.org/2000/svg" width="34" height="30"><path fill="#fff" d="M27.17 30c-.26 0-.53-.08-.75-.23l-8.49-5.72-4.55 3.26a1.34 1.34 0 0 1-2.07-.74l-2.29-8.61-8.16-3.1a1.33 1.33 0 0 1-.02-2.48L31.9.11a1.34 1.34 0 0 1 1.86 1.12 1.35 1.35 0 0 1-.03.36l-5.24 27.33A1.33 1.33 0 0 1 27.17 30zm-8.5-8.66l7.57 5.1 4.08-21.26-14.73 14.08 3.05 2.06.04.02zm-6.28-1.13l1 3.81 2.19-1.56-2.86-1.92c-.13-.1-.24-.2-.33-.33zM5 13.6l5.6 2.13c.41.15.71.49.82.9l.71 2.68c.04-.3.18-.6.4-.82L26.59 5.06 5.01 13.6z"/></svg>
