<svg xmlns="http://www.w3.org/2000/svg" width="30" height="30"><g fill="none"><path fill="#fff" d="M0 30l2.11-7.703a14.836 14.836 0 0 1-1.985-7.432C.128 6.668 6.799 0 14.995 0a14.776 14.776 0 0 1 10.52 4.36 14.774 14.774 0 0 1 4.35 10.517c-.003 8.196-6.674 14.865-14.87 14.865h-.006a14.863 14.863 0 0 1-7.106-1.81L0 30zm8.248-4.759l.452.268a12.343 12.343 0 0 0 6.29 1.723h.005c6.813 0 12.357-5.543 12.36-12.356a12.28 12.28 0 0 0-3.617-8.742A12.278 12.278 0 0 0 15 2.511c-6.817 0-12.362 5.542-12.365 12.355a12.324 12.324 0 0 0 1.89 6.575l.294.468-1.249 4.56 4.678-1.228z"/><path fill="#fff" fill-rule="evenodd" d="M11.279 8.65c-.302-.724-.608-.626-.836-.637C10.226 8.003 9.978 8 9.73 8c-.248 0-.65.093-.991.465-.34.372-1.3 1.27-1.3 3.099 0 1.828 1.33 3.594 1.517 3.842.185.248 2.62 4 6.347 5.609a21.42 21.42 0 0 0 2.118.782c.89.283 1.7.243 2.34.147.714-.106 2.199-.898 2.508-1.766.31-.868.31-1.611.217-1.766-.093-.155-.34-.248-.712-.434-.372-.186-2.198-1.085-2.539-1.209-.34-.124-.588-.186-.836.186s-.96 1.209-1.176 1.457c-.217.248-.434.279-.805.093-.372-.186-1.57-.578-2.988-1.844-1.105-.985-1.85-2.201-2.067-2.573-.217-.372-.024-.573.163-.758.167-.167.371-.434.557-.65.186-.218.248-.373.371-.62.124-.249.062-.465-.03-.651-.093-.186-.837-2.015-1.146-2.758z" clip-rule="evenodd"/></g></svg>
